<svg width="20" height="8" viewBox="0 0 20 8" fill="none" xmlns="http://www.w3.org/2000/svg">
    <path d="M1 3.5C0.723858 3.5 0.5 3.72386 0.5 4C0.5 4.27614 0.723858 4.5 1 4.5L1 3.5ZM19.3536 4.35355C19.5488 4.15829 19.5488 3.84171 19.3536 3.64645L16.1716 0.464465C15.9763 0.269203 15.6597 0.269203 15.4645 0.464465C15.2692 0.659727 15.2692 0.976309 15.4645 1.17157L18.2929 4L15.4645 6.82843C15.2692 7.02369 15.2692 7.34027 15.4645 7.53553C15.6597 7.73079 15.9763 7.73079 16.1716 7.53553L19.3536 4.35355ZM1 4.5C1.02165 4.5 1.04328 4.5 1.0649 4.5C1.08652 4.5 1.10812 4.5 1.12971 4.5C1.1513 4.5 1.17287 4.5 1.19442 4.5C1.21598 4.5 1.23751 4.5 1.25904 4.5C1.28056 4.5 1.30207 4.5 1.32356 4.5C1.34505 4.5 1.36652 4.5 1.38798 4.5C1.40944 4.5 1.43088 4.5 1.45231 4.5C1.47373 4.5 1.49515 4.5 1.51654 4.5C1.53793 4.5 1.55931 4.5 1.58067 4.5C1.60204 4.5 1.62338 4.5 1.64471 4.5C1.66604 4.5 1.68736 4.5 1.70865 4.5C1.72995 4.5 1.75123 4.5 1.7725 4.5C1.79376 4.5 1.81501 4.5 1.83625 4.5C1.85748 4.5 1.8787 4.5 1.8999 4.5C1.9211 4.5 1.94228 4.5 1.96345 4.5C1.98462 4.5 2.00577 4.5 2.02691 4.5C2.04804 4.5 2.06916 4.5 2.09027 4.5C2.11137 4.5 2.13246 4.5 2.15353 4.5C2.1746 4.5 2.19565 4.5 2.21669 4.5C2.23773 4.5 2.25875 4.5 2.27976 4.5C2.30076 4.5 2.32175 4.5 2.34273 4.5C2.3637 4.5 2.38466 4.5 2.4056 4.5C2.42654 4.5 2.44746 4.5 2.46837 4.5C2.48928 4.5 2.51017 4.5 2.53104 4.5C2.55192 4.5 2.57278 4.5 2.59362 4.5C2.61446 4.5 2.63529 4.5 2.65609 4.5C2.6769 4.5 2.6977 4.5 2.71847 4.5C2.73925 4.5 2.76001 4.5 2.78075 4.5C2.8015 4.5 2.82222 4.5 2.84293 4.5C2.86364 4.5 2.88434 4.5 2.90501 4.5C2.92569 4.5 2.94635 4.5 2.967 4.5C2.98764 4.5 3.00827 4.5 3.02888 4.5C3.04949 4.5 3.07009 4.5 3.09066 4.5C3.11124 4.5 3.1318 4.5 3.15235 4.5C3.17289 4.5 3.19342 4.5 3.21393 4.5C3.23445 4.5 3.25494 4.5 3.27542 4.5C3.2959 4.5 3.31636 4.5 3.3368 4.5C3.35725 4.5 3.37768 4.5 3.39809 4.5C3.4185 4.5 3.4389 4.5 3.45927 4.5C3.47965 4.5 3.50001 4.5 3.52036 4.5C3.5407 4.5 3.56103 4.5 3.58134 4.5C3.60166 4.5 3.62195 4.5 3.64223 4.5C3.66251 4.5 3.68277 4.5 3.70301 4.5C3.72326 4.5 3.74348 4.5 3.76369 4.5C3.78391 4.5 3.8041 4.5 3.82428 4.5C3.84445 4.5 3.86461 4.5 3.88476 4.5C3.9049 4.5 3.92503 4.5 3.94514 4.5C3.96525 4.5 3.98534 4.5 4.00542 4.5C4.02549 4.5 4.04555 4.5 4.06559 4.5C4.08564 4.5 4.10566 4.5 4.12567 4.5C4.14568 4.5 4.16567 4.5 4.18564 4.5C4.20562 4.5 4.22558 4.5 4.24552 4.5C4.26546 4.5 4.28538 4.5 4.30529 4.5C4.32519 4.5 4.34508 4.5 4.36496 4.5C4.38483 4.5 4.40468 4.5 4.42452 4.5C4.44436 4.5 4.46418 4.5 4.48399 4.5C4.50379 4.5 4.52358 4.5 4.54335 4.5C4.56312 4.5 4.58287 4.5 4.60261 4.5C4.62235 4.5 4.64207 4.5 4.66177 4.5C4.68147 4.5 4.70115 4.5 4.72082 4.5C4.74049 4.5 4.76014 4.5 4.77977 4.5C4.79941 4.5 4.81902 4.5 4.83862 4.5C4.85822 4.5 4.8778 4.5 4.89737 4.5C4.91693 4.5 4.93648 4.5 4.95601 4.5C4.97554 4.5 4.99505 4.5 5.01455 4.5C5.03405 4.5 5.05353 4.5 5.07299 4.5C5.09245 4.5 5.11189 4.5 5.13132 4.5C5.15075 4.5 5.17016 4.5 5.18955 4.5C5.20894 4.5 5.22831 4.5 5.24767 4.5C5.26703 4.5 5.28637 4.5 5.30569 4.5C5.32502 4.5 5.34432 4.5 5.36361 4.5C5.3829 4.5 5.40217 4.5 5.42142 4.5C5.44068 4.5 5.45991 4.5 5.47913 4.5C5.49835 4.5 5.51755 4.5 5.53674 4.5C5.55592 4.5 5.57509 4.5 5.59424 4.5C5.61339 4.5 5.63252 4.5 5.65163 4.5C5.67075 4.5 5.68984 4.5 5.70892 4.5C5.728 4.5 5.74706 4.5 5.76611 4.5C5.78515 4.5 5.80418 4.5 5.82319 4.5C5.8422 4.5 5.86119 4.5 5.88016 4.5C5.89914 4.5 5.91809 4.5 5.93703 4.5C5.95597 4.5 5.97489 4.5 5.9938 4.5C6.0127 4.5 6.03159 4.5 6.05046 4.5C6.06933 4.5 6.08818 4.5 6.10701 4.5C6.12584 4.5 6.14466 4.5 6.16346 4.5C6.18226 4.5 6.20104 4.5 6.2198 4.5C6.23856 4.5 6.25731 4.5 6.27604 4.5C6.29476 4.5 6.31347 4.5 6.33217 4.5C6.35086 4.5 6.36953 4.5 6.38819 4.5C6.40685 4.5 6.42549 4.5 6.44411 4.5C6.46273 4.5 6.48133 4.5 6.49992 4.5C6.5185 4.5 6.53707 4.5 6.55562 4.5C6.57417 4.5 6.5927 4.5 6.61122 4.5C6.62973 4.5 6.64823 4.5 6.66671 4.5C6.68519 4.5 6.70365 4.5 6.72209 4.5C6.74054 4.5 6.75896 4.5 6.77737 4.5C6.79578 4.5 6.81417 4.5 6.83254 4.5C6.85091 4.5 6.86926 4.5 6.8876 4.5C6.90594 4.5 6.92425 4.5 6.94255 4.5C6.96086 4.5 6.97914 4.5 6.9974 4.5C7.01567 4.5 7.03391 4.5 7.05214 4.5C7.07037 4.5 7.08858 4.5 7.10677 4.5C7.12496 4.5 7.14314 4.5 7.1613 4.5C7.17945 4.5 7.19759 4.5 7.21571 4.5C7.23383 4.5 7.25193 4.5 7.27002 4.5C7.2881 4.5 7.30617 4.5 7.32422 4.5C7.34227 4.5 7.3603 4.5 7.37831 4.5C7.39632 4.5 7.41431 4.5 7.43229 4.5C7.45026 4.5 7.46822 4.5 7.48616 4.5C7.5041 4.5 7.52202 4.5 7.53993 4.5C7.55783 4.5 7.57571 4.5 7.59358 4.5C7.61145 4.5 7.6293 4.5 7.64713 4.5C7.66496 4.5 7.68277 4.5 7.70056 4.5C7.71836 4.5 7.73613 4.5 7.75389 4.5C7.77165 4.5 7.78939 4.5 7.80711 4.5C7.82483 4.5 7.84253 4.5 7.86022 4.5C7.8779 4.5 7.89557 4.5 7.91322 4.5C7.93087 4.5 7.9485 4.5 7.96611 4.5C7.98372 4.5 8.00131 4.5 8.01889 4.5C8.03646 4.5 8.05402 4.5 8.07156 4.5C8.08909 4.5 8.10661 4.5 8.12412 4.5C8.14162 4.5 8.1591 4.5 8.17656 4.5C8.19403 4.5 8.21147 4.5 8.2289 4.5C8.24633 4.5 8.26374 4.5 8.28113 4.5C8.29852 4.5 8.31589 4.5 8.33325 4.5C8.3506 4.5 8.36794 4.5 8.38525 4.5C8.40257 4.5 8.41987 4.5 8.43715 4.5C8.45443 4.5 8.47169 4.5 8.48893 4.5C8.50618 4.5 8.5234 4.5 8.54061 4.5C8.55781 4.5 8.575 4.5 8.59217 4.5C8.60934 4.5 8.62649 4.5 8.64362 4.5C8.66075 4.5 8.67787 4.5 8.69496 4.5C8.71205 4.5 8.72913 4.5 8.74619 4.5C8.76325 4.5 8.78028 4.5 8.7973 4.5C8.81432 4.5 8.83133 4.5 8.84831 4.5C8.86529 4.5 8.88225 4.5 8.8992 4.5C8.91614 4.5 8.93307 4.5 8.94998 4.5C8.96689 4.5 8.98378 4.5 9.00065 4.5C9.01752 4.5 9.03437 4.5 9.0512 4.5C9.06804 4.5 9.08485 4.5 9.10164 4.5C9.11844 4.5 9.13522 4.5 9.15197 4.5C9.16873 4.5 9.18547 4.5 9.20219 4.5C9.21891 4.5 9.23561 4.5 9.2523 4.5C9.26898 4.5 9.28564 4.5 9.30229 4.5C9.31893 4.5 9.33556 4.5 9.35217 4.5C9.36877 4.5 9.38536 4.5 9.40193 4.5C9.4185 4.5 9.43505 4.5 9.45158 4.5C9.46811 4.5 9.48463 4.5 9.50112 4.5C9.51762 4.5 9.53409 4.5 9.55055 4.5C9.567 4.5 9.58344 4.5 9.59986 4.5C9.61627 4.5 9.63267 4.5 9.64905 4.5C9.66543 4.5 9.6818 4.5 9.69814 4.5C9.71448 4.5 9.7308 4.5 9.74711 4.5C9.76341 4.5 9.7797 4.5 9.79596 4.5C9.81223 4.5 9.82847 4.5 9.8447 4.5C9.86093 4.5 9.87714 4.5 9.89333 4.5C9.90952 4.5 9.92569 4.5 9.94184 4.5C9.95799 4.5 9.97412 4.5 9.99024 4.5C10.0063 4.5 10.0224 4.5 10.0385 4.5C10.0546 4.5 10.0706 4.5 10.0867 4.5C10.1027 4.5 10.1187 4.5 10.1347 4.5C10.1507 4.5 10.1667 4.5 10.1827 4.5C10.1986 4.5 10.2146 4.5 10.2305 4.5C10.2464 4.5 10.2623 4.5 10.2782 4.5C10.2941 4.5 10.3099 4.5 10.3258 4.5C10.3416 4.5 10.3575 4.5 10.3733 4.5C10.3891 4.5 10.4049 4.5 10.4206 4.5C10.4364 4.5 10.4521 4.5 10.4679 4.5C10.4836 4.5 10.4993 4.5 10.515 4.5C10.5307 4.5 10.5464 4.5 10.562 4.5C10.5777 4.5 10.5933 4.5 10.6089 4.5C10.6245 4.5 10.6401 4.5 10.6557 4.5C10.6713 4.5 10.6868 4.5 10.7023 4.5C10.7179 4.5 10.7334 4.5 10.7489 4.5C10.7644 4.5 10.7799 4.5 10.7953 4.5C10.8108 4.5 10.8262 4.5 10.8416 4.5C10.857 4.5 10.8724 4.5 10.8878 4.5C10.9032 4.5 10.9186 4.5 10.9339 4.5C10.9492 4.5 10.9646 4.5 10.9799 4.5C10.9952 4.5 11.0104 4.5 11.0257 4.5C11.041 4.5 11.0562 4.5 11.0714 4.5C11.0866 4.5 11.1018 4.5 11.117 4.5C11.1322 4.5 11.1474 4.5 11.1625 4.5C11.1777 4.5 11.1928 4.5 11.2079 4.5C11.223 4.5 11.2381 4.5 11.2531 4.5C11.2682 4.5 11.2832 4.5 11.2983 4.5C11.3133 4.5 11.3283 4.5 11.3433 4.5C11.3583 4.5 11.3732 4.5 11.3882 4.5C11.4031 4.5 11.4181 4.5 11.433 4.5C11.4479 4.5 11.4628 4.5 11.4776 4.5C11.4925 4.5 11.5073 4.5 11.5222 4.5C11.537 4.5 11.5518 4.5 11.5666 4.5C11.5814 4.5 11.5962 4.5 11.6109 4.5C11.6257 4.5 11.6404 4.5 11.6551 4.5C11.6698 4.5 11.6845 4.5 11.6992 4.5C11.7138 4.5 11.7285 4.5 11.7431 4.5C11.7577 4.5 11.7723 4.5 11.7869 4.5C11.8015 4.5 11.8161 4.5 11.8306 4.5C11.8452 4.5 11.8597 4.5 11.8742 4.5C11.8887 4.5 11.9032 4.5 11.9177 4.5C11.9322 4.5 11.9466 4.5 11.961 4.5C11.9755 4.5 11.9899 4.5 12.0043 4.5C12.0187 4.5 12.033 4.5 12.0474 4.5C12.0617 4.5 12.0761 4.5 12.0904 4.5C12.1047 4.5 12.119 4.5 12.1332 4.5C12.1475 4.5 12.1618 4.5 12.176 4.5C12.1902 4.5 12.2044 4.5 12.2186 4.5C12.2328 4.5 12.247 4.5 12.2611 4.5C12.2753 4.5 12.2894 4.5 12.3035 4.5C12.3176 4.5 12.3317 4.5 12.3458 4.5C12.3598 4.5 12.3739 4.5 12.3879 4.5C12.4019 4.5 12.4159 4.5 12.4299 4.5C12.4439 4.5 12.4579 4.5 12.4718 4.5C12.4858 4.5 12.4997 4.5 12.5136 4.5C12.5275 4.5 12.5414 4.5 12.5553 4.5C12.5691 4.5 12.583 4.5 12.5968 4.5C12.6106 4.5 12.6244 4.5 12.6382 4.5C12.652 4.5 12.6657 4.5 12.6795 4.5C12.6932 4.5 12.707 4.5 12.7207 4.5C12.7344 4.5 12.748 4.5 12.7617 4.5C12.7754 4.5 12.789 4.5 12.8026 4.5C12.8162 4.5 12.8298 4.5 12.8434 4.5C12.857 4.5 12.8706 4.5 12.8841 4.5C12.8976 4.5 12.9112 4.5 12.9247 4.5C12.9382 4.5 12.9516 4.5 12.9651 4.5C12.9785 4.5 12.992 4.5 13.0054 4.5C13.0188 4.5 13.0322 4.5 13.0456 4.5C13.059 4.5 13.0723 4.5 13.0856 4.5C13.099 4.5 13.1123 4.5 13.1256 4.5C13.1389 4.5 13.1521 4.5 13.1654 4.5C13.1786 4.5 13.1919 4.5 13.2051 4.5C13.2183 4.5 13.2315 4.5 13.2447 4.5C13.2578 4.5 13.271 4.5 13.2841 4.5C13.2972 4.5 13.3103 4.5 13.3234 4.5C13.3365 4.5 13.3496 4.5 13.3626 4.5C13.3757 4.5 13.3887 4.5 13.4017 4.5C13.4147 4.5 13.4277 4.5 13.4406 4.5C13.4536 4.5 13.4665 4.5 13.4795 4.5C13.4924 4.5 13.5053 4.5 13.5182 4.5C13.531 4.5 13.5439 4.5 13.5567 4.5C13.5696 4.5 13.5824 4.5 13.5952 4.5C13.608 4.5 13.6207 4.5 13.6335 4.5C13.6463 4.5 13.659 4.5 13.6717 4.5C13.6844 4.5 13.6971 4.5 13.7098 4.5C13.7224 4.5 13.7351 4.5 13.7477 4.5C13.7603 4.5 13.773 4.5 13.7855 4.5C13.7981 4.5 13.8107 4.5 13.8232 4.5C13.8358 4.5 13.8483 4.5 13.8608 4.5C13.8733 4.5 13.8858 4.5 13.8983 4.5C13.9107 4.5 13.9232 4.5 13.9356 4.5C13.948 4.5 13.9604 4.5 13.9728 4.5C13.9851 4.5 13.9975 4.5 14.0098 4.5C14.0222 4.5 14.0345 4.5 14.0468 4.5C14.0591 4.5 14.0713 4.5 14.0836 4.5C14.0958 4.5 14.1081 4.5 14.1203 4.5C14.1325 4.5 14.1447 4.5 14.1568 4.5C14.169 4.5 14.1811 4.5 14.1933 4.5C14.2054 4.5 14.2175 4.5 14.2296 4.5C14.2417 4.5 14.2537 4.5 14.2657 4.5C14.2778 4.5 14.2898 4.5 14.3018 4.5C14.3138 4.5 14.3258 4.5 14.3377 4.5C14.3497 4.5 14.3616 4.5 14.3735 4.5C14.3854 4.5 14.3973 4.5 14.4092 4.5C14.4211 4.5 14.4329 4.5 14.4447 4.5C14.4566 4.5 14.4684 4.5 14.4801 4.5C14.4919 4.5 14.5037 4.5 14.5154 4.5C14.5272 4.5 14.5389 4.5 14.5506 4.5C14.5623 4.5 14.574 4.5 14.5856 4.5C14.5973 4.5 14.6089 4.5 14.6205 4.5C14.6321 4.5 14.6437 4.5 14.6553 4.5C14.6669 4.5 14.6784 4.5 14.6899 4.5C14.7015 4.5 14.713 4.5 14.7245 4.5C14.7359 4.5 14.7474 4.5 14.7588 4.5C14.7703 4.5 14.7817 4.5 14.7931 4.5C14.8045 4.5 14.8159 4.5 14.8272 4.5C14.8386 4.5 14.8499 4.5 14.8612 4.5C14.8725 4.5 14.8838 4.5 14.8951 4.5C14.9064 4.5 14.9176 4.5 14.9288 4.5C14.9401 4.5 14.9513 4.5 14.9625 4.5C14.9736 4.5 14.9848 4.5 14.9959 4.5C15.0071 4.5 15.0182 4.5 15.0293 4.5C15.0404 4.5 15.0515 4.5 15.0625 4.5C15.0736 4.5 15.0846 4.5 15.0956 4.5C15.1066 4.5 15.1176 4.5 15.1286 4.5C15.1395 4.5 15.1505 4.5 15.1614 4.5C15.1723 4.5 15.1832 4.5 15.1941 4.5C15.205 4.5 15.2158 4.5 15.2267 4.5C15.2375 4.5 15.2483 4.5 15.2591 4.5C15.2699 4.5 15.2807 4.5 15.2914 4.5C15.3022 4.5 15.3129 4.5 15.3236 4.5C15.3343 4.5 15.345 4.5 15.3556 4.5C15.3663 4.5 15.3769 4.5 15.3876 4.5C15.3982 4.5 15.4088 4.5 15.4193 4.5C15.4299 4.5 15.4405 4.5 15.451 4.5C15.4615 4.5 15.472 4.5 15.4825 4.5C15.493 4.5 15.5035 4.5 15.5139 4.5C15.5243 4.5 15.5348 4.5 15.5452 4.5C15.5556 4.5 15.5659 4.5 15.5763 4.5C15.5866 4.5 15.597 4.5 15.6073 4.5C15.6176 4.5 15.6279 4.5 15.6381 4.5C15.6484 4.5 15.6587 4.5 15.6689 4.5C15.6791 4.5 15.6893 4.5 15.6995 4.5C15.7097 4.5 15.7198 4.5 15.7299 4.5C15.7401 4.5 15.7502 4.5 15.7603 4.5C15.7704 4.5 15.7804 4.5 15.7905 4.5C15.8005 4.5 15.8105 4.5 15.8205 4.5C15.8305 4.5 15.8405 4.5 15.8505 4.5C15.8604 4.5 15.8704 4.5 15.8803 4.5C15.8902 4.5 15.9001 4.5 15.9099 4.5C15.9198 4.5 15.9297 4.5 15.9395 4.5C15.9493 4.5 15.9591 4.5 15.9689 4.5C15.9787 4.5 15.9884 4.5 15.9981 4.5C16.0079 4.5 16.0176 4.5 16.0273 4.5C16.037 4.5 16.0466 4.5 16.0563 4.5C16.0659 4.5 16.0755 4.5 16.0851 4.5C16.0947 4.5 16.1043 4.5 16.1139 4.5C16.1234 4.5 16.133 4.5 16.1425 4.5C16.152 4.5 16.1615 4.5 16.1709 4.5C16.1804 4.5 16.1898 4.5 16.1993 4.5C16.2087 4.5 16.2181 4.5 16.2275 4.5C16.2368 4.5 16.2462 4.5 16.2555 4.5C16.2648 4.5 16.2742 4.5 16.2834 4.5C16.2927 4.5 16.302 4.5 16.3112 4.5C16.3205 4.5 16.3297 4.5 16.3389 4.5C16.3481 4.5 16.3573 4.5 16.3664 4.5C16.3756 4.5 16.3847 4.5 16.3938 4.5C16.4029 4.5 16.412 4.5 16.421 4.5C16.4301 4.5 16.4391 4.5 16.4482 4.5C16.4572 4.5 16.4662 4.5 16.4751 4.5C16.4841 4.5 16.493 4.5 16.502 4.5C16.5109 4.5 16.5198 4.5 16.5287 4.5C16.5376 4.5 16.5464 4.5 16.5552 4.5C16.5641 4.5 16.5729 4.5 16.5817 4.5C16.5905 4.5 16.5992 4.5 16.608 4.5C16.6167 4.5 16.6254 4.5 16.6341 4.5C16.6428 4.5 16.6515 4.5 16.6602 4.5C16.6688 4.5 16.6774 4.5 16.686 4.5C16.6947 4.5 16.7032 4.5 16.7118 4.5C16.7204 4.5 16.7289 4.5 16.7374 4.5C16.7459 4.5 16.7544 4.5 16.7629 4.5C16.7714 4.5 16.7798 4.5 16.7882 4.5C16.7966 4.5 16.805 4.5 16.8134 4.5C16.8218 4.5 16.8302 4.5 16.8385 4.5C16.8468 4.5 16.8551 4.5 16.8634 4.5C16.8717 4.5 16.88 4.5 16.8882 4.5C16.8964 4.5 16.9047 4.5 16.9129 4.5C16.9211 4.5 16.9292 4.5 16.9374 4.5C16.9455 4.5 16.9536 4.5 16.9617 4.5C16.9699 4.5 16.9779 4.5 16.986 4.5C16.994 4.5 17.0021 4.5 17.0101 4.5C17.0181 4.5 17.0261 4.5 17.034 4.5C17.042 4.5 17.0499 4.5 17.0579 4.5C17.0658 4.5 17.0737 4.5 17.0816 4.5C17.0894 4.5 17.0973 4.5 17.1051 4.5C17.1129 4.5 17.1207 4.5 17.1285 4.5C17.1363 4.5 17.144 4.5 17.1518 4.5C17.1595 4.5 17.1672 4.5 17.1749 4.5C17.1826 4.5 17.1902 4.5 17.1979 4.5C17.2055 4.5 17.2131 4.5 17.2207 4.5C17.2283 4.5 17.2359 4.5 17.2434 4.5C17.251 4.5 17.2585 4.5 17.266 4.5C17.2735 4.5 17.281 4.5 17.2884 4.5C17.2959 4.5 17.3033 4.5 17.3107 4.5C17.3181 4.5 17.3255 4.5 17.3329 4.5C17.3402 4.5 17.3476 4.5 17.3549 4.5C17.3622 4.5 17.3695 4.5 17.3768 4.5C17.384 4.5 17.3913 4.5 17.3985 4.5C17.4057 4.5 17.4129 4.5 17.4201 4.5C17.4273 4.5 17.4344 4.5 17.4415 4.5C17.4487 4.5 17.4558 4.5 17.4628 4.5C17.4699 4.5 17.477 4.5 17.484 4.5C17.491 4.5 17.4981 4.5 17.505 4.5C17.512 4.5 17.519 4.5 17.5259 4.5C17.5329 4.5 17.5398 4.5 17.5467 4.5C17.5536 4.5 17.5604 4.5 17.5673 4.5C17.5741 4.5 17.5809 4.5 17.5877 4.5C17.5945 4.5 17.6013 4.5 17.608 4.5C17.6148 4.5 17.6215 4.5 17.6282 4.5C17.6349 4.5 17.6416 4.5 17.6483 4.5C17.6549 4.5 17.6616 4.5 17.6682 4.5C17.6748 4.5 17.6813 4.5 17.6879 4.5C17.6945 4.5 17.701 4.5 17.7075 4.5C17.714 4.5 17.7205 4.5 17.727 4.5C17.7335 4.5 17.7399 4.5 17.7463 4.5C17.7527 4.5 17.7591 4.5 17.7655 4.5C17.7719 4.5 17.7782 4.5 17.7845 4.5C17.7909 4.5 17.7972 4.5 17.8034 4.5C17.8097 4.5 17.816 4.5 17.8222 4.5C17.8284 4.5 17.8346 4.5 17.8408 4.5C17.847 4.5 17.8531 4.5 17.8593 4.5C17.8654 4.5 17.8715 4.5 17.8776 4.5C17.8837 4.5 17.8897 4.5 17.8958 4.5C17.9018 4.5 17.9078 4.5 17.9138 4.5C17.9198 4.5 17.9258 4.5 17.9317 4.5C17.9376 4.5 17.9436 4.5 17.9495 4.5C17.9553 4.5 17.9612 4.5 17.9671 4.5C17.9729 4.5 17.9787 4.5 17.9845 4.5C17.9903 4.5 17.9961 4.5 18.0018 4.5C18.0076 4.5 18.0133 4.5 18.019 4.5C18.0247 4.5 18.0304 4.5 18.036 4.5C18.0417 4.5 18.0473 4.5 18.0529 4.5C18.0585 4.5 18.0641 4.5 18.0697 4.5C18.0752 4.5 18.0808 4.5 18.0863 4.5C18.0918 4.5 18.0973 4.5 18.1027 4.5C18.1082 4.5 18.1136 4.5 18.119 4.5C18.1244 4.5 18.1298 4.5 18.1352 4.5C18.1405 4.5 18.1459 4.5 18.1512 4.5C18.1565 4.5 18.1618 4.5 18.1671 4.5C18.1723 4.5 18.1776 4.5 18.1828 4.5C18.188 4.5 18.1932 4.5 18.1984 4.5C18.2035 4.5 18.2087 4.5 18.2138 4.5C18.2189 4.5 18.224 4.5 18.2291 4.5C18.2342 4.5 18.2392 4.5 18.2442 4.5C18.2492 4.5 18.2542 4.5 18.2592 4.5C18.2642 4.5 18.2691 4.5 18.2741 4.5C18.279 4.5 18.2839 4.5 18.2888 4.5C18.2936 4.5 18.2985 4.5 18.3033 4.5C18.3082 4.5 18.313 4.5 18.3177 4.5C18.3225 4.5 18.3273 4.5 18.332 4.5C18.3367 4.5 18.3414 4.5 18.3461 4.5C18.3508 4.5 18.3554 4.5 18.3601 4.5C18.3647 4.5 18.3693 4.5 18.3739 4.5C18.3785 4.5 18.383 4.5 18.3876 4.5C18.3921 4.5 18.3966 4.5 18.4011 4.5C18.4056 4.5 18.41 4.5 18.4145 4.5C18.4189 4.5 18.4233 4.5 18.4277 4.5C18.4321 4.5 18.4365 4.5 18.4408 4.5C18.4451 4.5 18.4494 4.5 18.4537 4.5C18.458 4.5 18.4623 4.5 18.4665 4.5C18.4708 4.5 18.475 4.5 18.4792 4.5C18.4833 4.5 18.4875 4.5 18.4917 4.5C18.4958 4.5 18.4999 4.5 18.504 4.5C18.5081 4.5 18.5121 4.5 18.5162 4.5C18.5202 4.5 18.5242 4.5 18.5282 4.5C18.5322 4.5 18.5362 4.5 18.5401 4.5C18.5441 4.5 18.548 4.5 18.5519 4.5C18.5558 4.5 18.5596 4.5 18.5635 4.5C18.5673 4.5 18.5711 4.5 18.5749 4.5C18.5787 4.5 18.5825 4.5 18.5862 4.5C18.59 4.5 18.5937 4.5 18.5974 4.5C18.6011 4.5 18.6047 4.5 18.6084 4.5C18.612 4.5 18.6157 4.5 18.6192 4.5C18.6228 4.5 18.6264 4.5 18.6299 4.5C18.6335 4.5 18.637 4.5 18.6405 4.5C18.644 4.5 18.6475 4.5 18.6509 4.5C18.6543 4.5 18.6578 4.5 18.6612 4.5C18.6646 4.5 18.6679 4.5 18.6713 4.5C18.6746 4.5 18.6779 4.5 18.6812 4.5C18.6845 4.5 18.6878 4.5 18.691 4.5C18.6943 4.5 18.6975 4.5 18.7007 4.5C18.7039 4.5 18.707 4.5 18.7102 4.5C18.7133 4.5 18.7164 4.5 18.7195 4.5C18.7226 4.5 18.7257 4.5 18.7287 4.5C18.7318 4.5 18.7348 4.5 18.7378 4.5C18.7408 4.5 18.7437 4.5 18.7467 4.5C18.7496 4.5 18.7525 4.5 18.7554 4.5C18.7583 4.5 18.7612 4.5 18.764 4.5C18.7669 4.5 18.7697 4.5 18.7725 4.5C18.7752 4.5 18.778 4.5 18.7807 4.5C18.7835 4.5 18.7862 4.5 18.7889 4.5C18.7916 4.5 18.7942 4.5 18.7969 4.5C18.7995 4.5 18.8021 4.5 18.8047 4.5C18.8073 4.5 18.8099 4.5 18.8124 4.5C18.8149 4.5 18.8174 4.5 18.8199 4.5C18.8224 4.5 18.8249 4.5 18.8273 4.5C18.8297 4.5 18.8322 4.5 18.8345 4.5C18.8369 4.5 18.8393 4.5 18.8416 4.5C18.8439 4.5 18.8463 4.5 18.8485 4.5C18.8508 4.5 18.8531 4.5 18.8553 4.5C18.8575 4.5 18.8597 4.5 18.8619 4.5C18.8641 4.5 18.8663 4.5 18.8684 4.5C18.8705 4.5 18.8726 4.5 18.8747 4.5C18.8768 4.5 18.8788 4.5 18.8808 4.5C18.8829 4.5 18.8849 4.5 18.8868 4.5C18.8888 4.5 18.8908 4.5 18.8927 4.5C18.8946 4.5 18.8965 4.5 18.8984 4.5C18.9003 4.5 18.9021 4.5 18.9039 4.5C18.9058 4.5 18.9076 4.5 18.9093 4.5C18.9111 4.5 18.9128 4.5 18.9146 4.5C18.9163 4.5 18.918 4.5 18.9196 4.5C18.9213 4.5 18.9229 4.5 18.9246 4.5C18.9262 4.5 18.9278 4.5 18.9293 4.5C18.9309 4.5 18.9324 4.5 18.9339 4.5C18.9355 4.5 18.9369 4.5 18.9384 4.5C18.9399 4.5 18.9413 4.5 18.9427 4.5C18.9441 4.5 18.9455 4.5 18.9469 4.5C18.9482 4.5 18.9496 4.5 18.9509 4.5C18.9522 4.5 18.9534 4.5 18.9547 4.5C18.956 4.5 18.9572 4.5 18.9584 4.5C18.9596 4.5 18.9608 4.5 18.9619 4.5C18.9631 4.5 18.9642 4.5 18.9653 4.5C18.9664 4.5 18.9675 4.5 18.9685 4.5C18.9696 4.5 18.9706 4.5 18.9716 4.5C18.9726 4.5 18.9735 4.5 18.9745 4.5C18.9754 4.5 18.9763 4.5 18.9772 4.5C18.9781 4.5 18.979 4.5 18.9798 4.5C18.9807 4.5 18.9815 4.5 18.9823 4.5C18.983 4.5 18.9838 4.5 18.9845 4.5C18.9853 4.5 18.986 4.5 18.9867 4.5C18.9874 4.5 18.988 4.5 18.9886 4.5C18.9893 4.5 18.9899 4.5 18.9905 4.5C18.991 4.5 18.9916 4.5 18.9921 4.5C18.9926 4.5 18.9931 4.5 18.9936 4.5C18.9941 4.5 18.9945 4.5 18.9949 4.5C18.9954 4.5 18.9958 4.5 18.9961 4.5C18.9965 4.5 18.9968 4.5 18.9972 4.5C18.9975 4.5 18.9978 4.5 18.998 4.5C18.9983 4.5 18.9985 4.5 18.9987 4.5C18.9989 4.5 18.9991 4.5 18.9993 4.5C18.9994 4.5 18.9996 4.5 18.9997 4.5C18.9998 4.5 18.9999 4.5 18.9999 4.5C19 4.5 19 4.5 19 4C19 3.5 19 3.5 18.9999 3.5C18.9999 3.5 18.9998 3.5 18.9997 3.5C18.9996 3.5 18.9994 3.5 18.9993 3.5C18.9991 3.5 18.9989 3.5 18.9987 3.5C18.9985 3.5 18.9983 3.5 18.998 3.5C18.9978 3.5 18.9975 3.5 18.9972 3.5C18.9968 3.5 18.9965 3.5 18.9961 3.5C18.9958 3.5 18.9954 3.5 18.9949 3.5C18.9945 3.5 18.9941 3.5 18.9936 3.5C18.9931 3.5 18.9926 3.5 18.9921 3.5C18.9916 3.5 18.991 3.5 18.9905 3.5C18.9899 3.5 18.9893 3.5 18.9886 3.5C18.988 3.5 18.9874 3.5 18.9867 3.5C18.986 3.5 18.9853 3.5 18.9845 3.5C18.9838 3.5 18.983 3.5 18.9823 3.5C18.9815 3.5 18.9807 3.5 18.9798 3.5C18.979 3.5 18.9781 3.5 18.9772 3.5C18.9763 3.5 18.9754 3.5 18.9745 3.5C18.9735 3.5 18.9726 3.5 18.9716 3.5C18.9706 3.5 18.9696 3.5 18.9685 3.5C18.9675 3.5 18.9664 3.5 18.9653 3.5C18.9642 3.5 18.9631 3.5 18.9619 3.5C18.9608 3.5 18.9596 3.5 18.9584 3.5C18.9572 3.5 18.956 3.5 18.9547 3.5C18.9534 3.5 18.9522 3.5 18.9509 3.5C18.9496 3.5 18.9482 3.5 18.9469 3.5C18.9455 3.5 18.9441 3.5 18.9427 3.5C18.9413 3.5 18.9399 3.5 18.9384 3.5C18.9369 3.5 18.9355 3.5 18.9339 3.5C18.9324 3.5 18.9309 3.5 18.9293 3.5C18.9278 3.5 18.9262 3.5 18.9246 3.5C18.9229 3.5 18.9213 3.5 18.9196 3.5C18.918 3.5 18.9163 3.5 18.9146 3.5C18.9128 3.5 18.9111 3.5 18.9093 3.5C18.9076 3.5 18.9058 3.5 18.9039 3.5C18.9021 3.5 18.9003 3.5 18.8984 3.5C18.8965 3.5 18.8946 3.5 18.8927 3.5C18.8908 3.5 18.8888 3.5 18.8868 3.5C18.8849 3.5 18.8829 3.5 18.8808 3.5C18.8788 3.5 18.8768 3.5 18.8747 3.5C18.8726 3.5 18.8705 3.5 18.8684 3.5C18.8663 3.5 18.8641 3.5 18.8619 3.5C18.8597 3.5 18.8575 3.5 18.8553 3.5C18.8531 3.5 18.8508 3.5 18.8485 3.5C18.8463 3.5 18.8439 3.5 18.8416 3.5C18.8393 3.5 18.8369 3.5 18.8345 3.5C18.8322 3.5 18.8297 3.5 18.8273 3.5C18.8249 3.5 18.8224 3.5 18.8199 3.5C18.8174 3.5 18.8149 3.5 18.8124 3.5C18.8099 3.5 18.8073 3.5 18.8047 3.5C18.8021 3.5 18.7995 3.5 18.7969 3.5C18.7942 3.5 18.7916 3.5 18.7889 3.5C18.7862 3.5 18.7835 3.5 18.7807 3.5C18.778 3.5 18.7752 3.5 18.7725 3.5C18.7697 3.5 18.7669 3.5 18.764 3.5C18.7612 3.5 18.7583 3.5 18.7554 3.5C18.7525 3.5 18.7496 3.5 18.7467 3.5C18.7437 3.5 18.7408 3.5 18.7378 3.5C18.7348 3.5 18.7318 3.5 18.7287 3.5C18.7257 3.5 18.7226 3.5 18.7195 3.5C18.7164 3.5 18.7133 3.5 18.7102 3.5C18.707 3.5 18.7039 3.5 18.7007 3.5C18.6975 3.5 18.6943 3.5 18.691 3.5C18.6878 3.5 18.6845 3.5 18.6812 3.5C18.6779 3.5 18.6746 3.5 18.6713 3.5C18.6679 3.5 18.6646 3.5 18.6612 3.5C18.6578 3.5 18.6543 3.5 18.6509 3.5C18.6475 3.5 18.644 3.5 18.6405 3.5C18.637 3.5 18.6335 3.5 18.6299 3.5C18.6264 3.5 18.6228 3.5 18.6192 3.5C18.6157 3.5 18.612 3.5 18.6084 3.5C18.6047 3.5 18.6011 3.5 18.5974 3.5C18.5937 3.5 18.59 3.5 18.5862 3.5C18.5825 3.5 18.5787 3.5 18.5749 3.5C18.5711 3.5 18.5673 3.5 18.5635 3.5C18.5596 3.5 18.5558 3.5 18.5519 3.5C18.548 3.5 18.5441 3.5 18.5401 3.5C18.5362 3.5 18.5322 3.5 18.5282 3.5C18.5242 3.5 18.5202 3.5 18.5162 3.5C18.5121 3.5 18.5081 3.5 18.504 3.5C18.4999 3.5 18.4958 3.5 18.4917 3.5C18.4875 3.5 18.4833 3.5 18.4792 3.5C18.475 3.5 18.4708 3.5 18.4665 3.5C18.4623 3.5 18.458 3.5 18.4537 3.5C18.4494 3.5 18.4451 3.5 18.4408 3.5C18.4365 3.5 18.4321 3.5 18.4277 3.5C18.4233 3.5 18.4189 3.5 18.4145 3.5C18.41 3.5 18.4056 3.5 18.4011 3.5C18.3966 3.5 18.3921 3.5 18.3876 3.5C18.383 3.5 18.3785 3.5 18.3739 3.5C18.3693 3.5 18.3647 3.5 18.3601 3.5C18.3554 3.5 18.3508 3.5 18.3461 3.5C18.3414 3.5 18.3367 3.5 18.332 3.5C18.3273 3.5 18.3225 3.5 18.3177 3.5C18.313 3.5 18.3082 3.5 18.3033 3.5C18.2985 3.5 18.2936 3.5 18.2888 3.5C18.2839 3.5 18.279 3.5 18.2741 3.5C18.2691 3.5 18.2642 3.5 18.2592 3.5C18.2542 3.5 18.2492 3.5 18.2442 3.5C18.2392 3.5 18.2342 3.5 18.2291 3.5C18.224 3.5 18.2189 3.5 18.2138 3.5C18.2087 3.5 18.2035 3.5 18.1984 3.5C18.1932 3.5 18.188 3.5 18.1828 3.5C18.1776 3.5 18.1723 3.5 18.1671 3.5C18.1618 3.5 18.1565 3.5 18.1512 3.5C18.1459 3.5 18.1405 3.5 18.1352 3.5C18.1298 3.5 18.1244 3.5 18.119 3.5C18.1136 3.5 18.1082 3.5 18.1027 3.5C18.0972 3.5 18.0918 3.5 18.0863 3.5C18.0808 3.5 18.0752 3.5 18.0697 3.5C18.0641 3.5 18.0585 3.5 18.0529 3.5C18.0473 3.5 18.0417 3.5 18.036 3.5C18.0304 3.5 18.0247 3.5 18.019 3.5C18.0133 3.5 18.0076 3.5 18.0018 3.5C17.9961 3.5 17.9903 3.5 17.9845 3.5C17.9787 3.5 17.9729 3.5 17.9671 3.5C17.9612 3.5 17.9553 3.5 17.9495 3.5C17.9436 3.5 17.9376 3.5 17.9317 3.5C17.9258 3.5 17.9198 3.5 17.9138 3.5C17.9078 3.5 17.9018 3.5 17.8958 3.5C17.8897 3.5 17.8837 3.5 17.8776 3.5C17.8715 3.5 17.8654 3.5 17.8593 3.5C17.8531 3.5 17.847 3.5 17.8408 3.5C17.8346 3.5 17.8284 3.5 17.8222 3.5C17.816 3.5 17.8097 3.5 17.8034 3.5C17.7972 3.5 17.7909 3.5 17.7845 3.5C17.7782 3.5 17.7719 3.5 17.7655 3.5C17.7591 3.5 17.7527 3.5 17.7463 3.5C17.7399 3.5 17.7335 3.5 17.727 3.5C17.7205 3.5 17.714 3.5 17.7075 3.5C17.701 3.5 17.6945 3.5 17.6879 3.5C17.6813 3.5 17.6748 3.5 17.6682 3.5C17.6616 3.5 17.6549 3.5 17.6483 3.5C17.6416 3.5 17.6349 3.5 17.6282 3.5C17.6215 3.5 17.6148 3.5 17.608 3.5C17.6013 3.5 17.5945 3.5 17.5877 3.5C17.5809 3.5 17.5741 3.5 17.5673 3.5C17.5604 3.5 17.5536 3.5 17.5467 3.5C17.5398 3.5 17.5329 3.5 17.5259 3.5C17.519 3.5 17.512 3.5 17.505 3.5C17.4981 3.5 17.491 3.5 17.484 3.5C17.477 3.5 17.4699 3.5 17.4628 3.5C17.4558 3.5 17.4487 3.5 17.4415 3.5C17.4344 3.5 17.4273 3.5 17.4201 3.5C17.4129 3.5 17.4057 3.5 17.3985 3.5C17.3913 3.5 17.384 3.5 17.3768 3.5C17.3695 3.5 17.3622 3.5 17.3549 3.5C17.3476 3.5 17.3402 3.5 17.3329 3.5C17.3255 3.5 17.3181 3.5 17.3107 3.5C17.3033 3.5 17.2959 3.5 17.2884 3.5C17.281 3.5 17.2735 3.5 17.266 3.5C17.2585 3.5 17.251 3.5 17.2434 3.5C17.2359 3.5 17.2283 3.5 17.2207 3.5C17.2131 3.5 17.2055 3.5 17.1979 3.5C17.1902 3.5 17.1826 3.5 17.1749 3.5C17.1672 3.5 17.1595 3.5 17.1518 3.5C17.144 3.5 17.1363 3.5 17.1285 3.5C17.1207 3.5 17.1129 3.5 17.1051 3.5C17.0973 3.5 17.0894 3.5 17.0816 3.5C17.0737 3.5 17.0658 3.5 17.0579 3.5C17.0499 3.5 17.042 3.5 17.034 3.5C17.0261 3.5 17.0181 3.5 17.0101 3.5C17.0021 3.5 16.994 3.5 16.986 3.5C16.9779 3.5 16.9699 3.5 16.9617 3.5C16.9536 3.5 16.9455 3.5 16.9374 3.5C16.9292 3.5 16.9211 3.5 16.9129 3.5C16.9047 3.5 16.8964 3.5 16.8882 3.5C16.88 3.5 16.8717 3.5 16.8634 3.5C16.8551 3.5 16.8468 3.5 16.8385 3.5C16.8302 3.5 16.8218 3.5 16.8134 3.5C16.805 3.5 16.7966 3.5 16.7882 3.5C16.7798 3.5 16.7714 3.5 16.7629 3.5C16.7544 3.5 16.7459 3.5 16.7374 3.5C16.7289 3.5 16.7204 3.5 16.7118 3.5C16.7032 3.5 16.6947 3.5 16.686 3.5C16.6774 3.5 16.6688 3.5 16.6602 3.5C16.6515 3.5 16.6428 3.5 16.6341 3.5C16.6254 3.5 16.6167 3.5 16.608 3.5C16.5992 3.5 16.5905 3.5 16.5817 3.5C16.5729 3.5 16.5641 3.5 16.5552 3.5C16.5464 3.5 16.5376 3.5 16.5287 3.5C16.5198 3.5 16.5109 3.5 16.502 3.5C16.493 3.5 16.4841 3.5 16.4751 3.5C16.4662 3.5 16.4572 3.5 16.4482 3.5C16.4391 3.5 16.4301 3.5 16.421 3.5C16.412 3.5 16.4029 3.5 16.3938 3.5C16.3847 3.5 16.3756 3.5 16.3664 3.5C16.3573 3.5 16.3481 3.5 16.3389 3.5C16.3297 3.5 16.3205 3.5 16.3112 3.5C16.302 3.5 16.2927 3.5 16.2834 3.5C16.2742 3.5 16.2648 3.5 16.2555 3.5C16.2462 3.5 16.2368 3.5 16.2275 3.5C16.2181 3.5 16.2087 3.5 16.1993 3.5C16.1898 3.5 16.1804 3.5 16.1709 3.5C16.1615 3.5 16.152 3.5 16.1425 3.5C16.133 3.5 16.1234 3.5 16.1139 3.5C16.1043 3.5 16.0947 3.5 16.0851 3.5C16.0755 3.5 16.0659 3.5 16.0563 3.5C16.0466 3.5 16.037 3.5 16.0273 3.5C16.0176 3.5 16.0079 3.5 15.9981 3.5C15.9884 3.5 15.9787 3.5 15.9689 3.5C15.9591 3.5 15.9493 3.5 15.9395 3.5C15.9297 3.5 15.9198 3.5 15.9099 3.5C15.9001 3.5 15.8902 3.5 15.8803 3.5C15.8704 3.5 15.8604 3.5 15.8505 3.5C15.8405 3.5 15.8305 3.5 15.8205 3.5C15.8105 3.5 15.8005 3.5 15.7905 3.5C15.7804 3.5 15.7704 3.5 15.7603 3.5C15.7502 3.5 15.7401 3.5 15.7299 3.5C15.7198 3.5 15.7097 3.5 15.6995 3.5C15.6893 3.5 15.6791 3.5 15.6689 3.5C15.6587 3.5 15.6484 3.5 15.6381 3.5C15.6279 3.5 15.6176 3.5 15.6073 3.5C15.597 3.5 15.5866 3.5 15.5763 3.5C15.5659 3.5 15.5556 3.5 15.5452 3.5C15.5348 3.5 15.5243 3.5 15.5139 3.5C15.5035 3.5 15.493 3.5 15.4825 3.5C15.472 3.5 15.4615 3.5 15.451 3.5C15.4405 3.5 15.4299 3.5 15.4193 3.5C15.4088 3.5 15.3982 3.5 15.3876 3.5C15.3769 3.5 15.3663 3.5 15.3556 3.5C15.345 3.5 15.3343 3.5 15.3236 3.5C15.3129 3.5 15.3022 3.5 15.2914 3.5C15.2807 3.5 15.2699 3.5 15.2591 3.5C15.2483 3.5 15.2375 3.5 15.2267 3.5C15.2158 3.5 15.205 3.5 15.1941 3.5C15.1832 3.5 15.1723 3.5 15.1614 3.5C15.1505 3.5 15.1395 3.5 15.1286 3.5C15.1176 3.5 15.1066 3.5 15.0956 3.5C15.0846 3.5 15.0736 3.5 15.0625 3.5C15.0515 3.5 15.0404 3.5 15.0293 3.5C15.0182 3.5 15.0071 3.5 14.9959 3.5C14.9848 3.5 14.9736 3.5 14.9625 3.5C14.9513 3.5 14.9401 3.5 14.9288 3.5C14.9176 3.5 14.9064 3.5 14.8951 3.5C14.8838 3.5 14.8725 3.5 14.8612 3.5C14.8499 3.5 14.8386 3.5 14.8272 3.5C14.8159 3.5 14.8045 3.5 14.7931 3.5C14.7817 3.5 14.7703 3.5 14.7588 3.5C14.7474 3.5 14.7359 3.5 14.7245 3.5C14.713 3.5 14.7015 3.5 14.6899 3.5C14.6784 3.5 14.6669 3.5 14.6553 3.5C14.6437 3.5 14.6321 3.5 14.6205 3.5C14.6089 3.5 14.5973 3.5 14.5856 3.5C14.574 3.5 14.5623 3.5 14.5506 3.5C14.5389 3.5 14.5272 3.5 14.5154 3.5C14.5037 3.5 14.4919 3.5 14.4801 3.5C14.4684 3.5 14.4566 3.5 14.4447 3.5C14.4329 3.5 14.4211 3.5 14.4092 3.5C14.3973 3.5 14.3854 3.5 14.3735 3.5C14.3616 3.5 14.3497 3.5 14.3377 3.5C14.3258 3.5 14.3138 3.5 14.3018 3.5C14.2898 3.5 14.2778 3.5 14.2657 3.5C14.2537 3.5 14.2417 3.5 14.2296 3.5C14.2175 3.5 14.2054 3.5 14.1933 3.5C14.1811 3.5 14.169 3.5 14.1568 3.5C14.1447 3.5 14.1325 3.5 14.1203 3.5C14.1081 3.5 14.0958 3.5 14.0836 3.5C14.0713 3.5 14.0591 3.5 14.0468 3.5C14.0345 3.5 14.0222 3.5 14.0098 3.5C13.9975 3.5 13.9851 3.5 13.9728 3.5C13.9604 3.5 13.948 3.5 13.9356 3.5C13.9232 3.5 13.9107 3.5 13.8983 3.5C13.8858 3.5 13.8733 3.5 13.8608 3.5C13.8483 3.5 13.8358 3.5 13.8232 3.5C13.8107 3.5 13.7981 3.5 13.7855 3.5C13.773 3.5 13.7603 3.5 13.7477 3.5C13.7351 3.5 13.7224 3.5 13.7098 3.5C13.6971 3.5 13.6844 3.5 13.6717 3.5C13.659 3.5 13.6463 3.5 13.6335 3.5C13.6207 3.5 13.608 3.5 13.5952 3.5C13.5824 3.5 13.5696 3.5 13.5567 3.5C13.5439 3.5 13.531 3.5 13.5182 3.5C13.5053 3.5 13.4924 3.5 13.4795 3.5C13.4665 3.5 13.4536 3.5 13.4406 3.5C13.4277 3.5 13.4147 3.5 13.4017 3.5C13.3887 3.5 13.3757 3.5 13.3626 3.5C13.3496 3.5 13.3365 3.5 13.3234 3.5C13.3103 3.5 13.2972 3.5 13.2841 3.5C13.271 3.5 13.2578 3.5 13.2447 3.5C13.2315 3.5 13.2183 3.5 13.2051 3.5C13.1919 3.5 13.1786 3.5 13.1654 3.5C13.1521 3.5 13.1389 3.5 13.1256 3.5C13.1123 3.5 13.099 3.5 13.0856 3.5C13.0723 3.5 13.059 3.5 13.0456 3.5C13.0322 3.5 13.0188 3.5 13.0054 3.5C12.992 3.5 12.9785 3.5 12.9651 3.5C12.9516 3.5 12.9382 3.5 12.9247 3.5C12.9112 3.5 12.8976 3.5 12.8841 3.5C12.8706 3.5 12.857 3.5 12.8434 3.5C12.8298 3.5 12.8162 3.5 12.8026 3.5C12.789 3.5 12.7754 3.5 12.7617 3.5C12.748 3.5 12.7344 3.5 12.7207 3.5C12.707 3.5 12.6932 3.5 12.6795 3.5C12.6657 3.5 12.652 3.5 12.6382 3.5C12.6244 3.5 12.6106 3.5 12.5968 3.5C12.583 3.5 12.5691 3.5 12.5553 3.5C12.5414 3.5 12.5275 3.5 12.5136 3.5C12.4997 3.5 12.4858 3.5 12.4718 3.5C12.4579 3.5 12.4439 3.5 12.4299 3.5C12.4159 3.5 12.4019 3.5 12.3879 3.5C12.3739 3.5 12.3598 3.5 12.3458 3.5C12.3317 3.5 12.3176 3.5 12.3035 3.5C12.2894 3.5 12.2753 3.5 12.2611 3.5C12.247 3.5 12.2328 3.5 12.2186 3.5C12.2044 3.5 12.1902 3.5 12.176 3.5C12.1618 3.5 12.1475 3.5 12.1332 3.5C12.119 3.5 12.1047 3.5 12.0904 3.5C12.0761 3.5 12.0617 3.5 12.0474 3.5C12.033 3.5 12.0187 3.5 12.0043 3.5C11.9899 3.5 11.9755 3.5 11.961 3.5C11.9466 3.5 11.9322 3.5 11.9177 3.5C11.9032 3.5 11.8887 3.5 11.8742 3.5C11.8597 3.5 11.8452 3.5 11.8306 3.5C11.8161 3.5 11.8015 3.5 11.7869 3.5C11.7723 3.5 11.7577 3.5 11.7431 3.5C11.7285 3.5 11.7138 3.5 11.6992 3.5C11.6845 3.5 11.6698 3.5 11.6551 3.5C11.6404 3.5 11.6257 3.5 11.6109 3.5C11.5962 3.5 11.5814 3.5 11.5666 3.5C11.5518 3.5 11.537 3.5 11.5222 3.5C11.5073 3.5 11.4925 3.5 11.4776 3.5C11.4628 3.5 11.4479 3.5 11.433 3.5C11.4181 3.5 11.4031 3.5 11.3882 3.5C11.3732 3.5 11.3583 3.5 11.3433 3.5C11.3283 3.5 11.3133 3.5 11.2983 3.5C11.2832 3.5 11.2682 3.5 11.2531 3.5C11.2381 3.5 11.223 3.5 11.2079 3.5C11.1928 3.5 11.1777 3.5 11.1625 3.5C11.1474 3.5 11.1322 3.5 11.117 3.5C11.1018 3.5 11.0866 3.5 11.0714 3.5C11.0562 3.5 11.041 3.5 11.0257 3.5C11.0104 3.5 10.9952 3.5 10.9799 3.5C10.9646 3.5 10.9492 3.5 10.9339 3.5C10.9186 3.5 10.9032 3.5 10.8878 3.5C10.8724 3.5 10.857 3.5 10.8416 3.5C10.8262 3.5 10.8108 3.5 10.7953 3.5C10.7799 3.5 10.7644 3.5 10.7489 3.5C10.7334 3.5 10.7179 3.5 10.7023 3.5C10.6868 3.5 10.6713 3.5 10.6557 3.5C10.6401 3.5 10.6245 3.5 10.6089 3.5C10.5933 3.5 10.5777 3.5 10.562 3.5C10.5464 3.5 10.5307 3.5 10.515 3.5C10.4993 3.5 10.4836 3.5 10.4679 3.5C10.4521 3.5 10.4364 3.5 10.4206 3.5C10.4049 3.5 10.3891 3.5 10.3733 3.5C10.3575 3.5 10.3416 3.5 10.3258 3.5C10.3099 3.5 10.2941 3.5 10.2782 3.5C10.2623 3.5 10.2464 3.5 10.2305 3.5C10.2146 3.5 10.1986 3.5 10.1827 3.5C10.1667 3.5 10.1507 3.5 10.1347 3.5C10.1187 3.5 10.1027 3.5 10.0867 3.5C10.0706 3.5 10.0546 3.5 10.0385 3.5C10.0224 3.5 10.0063 3.5 9.99024 3.5C9.97412 3.5 9.95799 3.5 9.94184 3.5C9.92569 3.5 9.90952 3.5 9.89333 3.5C9.87714 3.5 9.86093 3.5 9.8447 3.5C9.82847 3.5 9.81223 3.5 9.79596 3.5C9.7797 3.5 9.76341 3.5 9.74711 3.5C9.7308 3.5 9.71448 3.5 9.69814 3.5C9.6818 3.5 9.66543 3.5 9.64905 3.5C9.63267 3.5 9.61627 3.5 9.59986 3.5C9.58344 3.5 9.567 3.5 9.55055 3.5C9.53409 3.5 9.51762 3.5 9.50112 3.5C9.48463 3.5 9.46811 3.5 9.45158 3.5C9.43505 3.5 9.4185 3.5 9.40193 3.5C9.38536 3.5 9.36877 3.5 9.35217 3.5C9.33556 3.5 9.31893 3.5 9.30229 3.5C9.28564 3.5 9.26898 3.5 9.2523 3.5C9.23561 3.5 9.21891 3.5 9.20219 3.5C9.18547 3.5 9.16873 3.5 9.15197 3.5C9.13522 3.5 9.11844 3.5 9.10164 3.5C9.08485 3.5 9.06804 3.5 9.0512 3.5C9.03437 3.5 9.01752 3.5 9.00065 3.5C8.98378 3.5 8.96689 3.5 8.94998 3.5C8.93307 3.5 8.91614 3.5 8.8992 3.5C8.88225 3.5 8.86529 3.5 8.84831 3.5C8.83133 3.5 8.81432 3.5 8.7973 3.5C8.78028 3.5 8.76325 3.5 8.74619 3.5C8.72913 3.5 8.71205 3.5 8.69496 3.5C8.67787 3.5 8.66075 3.5 8.64362 3.5C8.62649 3.5 8.60934 3.5 8.59217 3.5C8.575 3.5 8.55781 3.5 8.54061 3.5C8.5234 3.5 8.50618 3.5 8.48893 3.5C8.47169 3.5 8.45443 3.5 8.43715 3.5C8.41987 3.5 8.40257 3.5 8.38525 3.5C8.36794 3.5 8.3506 3.5 8.33325 3.5C8.31589 3.5 8.29852 3.5 8.28113 3.5C8.26374 3.5 8.24633 3.5 8.2289 3.5C8.21147 3.5 8.19403 3.5 8.17656 3.5C8.1591 3.5 8.14162 3.5 8.12412 3.5C8.10661 3.5 8.08909 3.5 8.07156 3.5C8.05402 3.5 8.03646 3.5 8.01889 3.5C8.00131 3.5 7.98372 3.5 7.96611 3.5C7.9485 3.5 7.93087 3.5 7.91322 3.5C7.89557 3.5 7.8779 3.5 7.86022 3.5C7.84253 3.5 7.82483 3.5 7.80711 3.5C7.78939 3.5 7.77165 3.5 7.75389 3.5C7.73613 3.5 7.71836 3.5 7.70056 3.5C7.68277 3.5 7.66496 3.5 7.64713 3.5C7.6293 3.5 7.61145 3.5 7.59358 3.5C7.57571 3.5 7.55783 3.5 7.53993 3.5C7.52202 3.5 7.5041 3.5 7.48616 3.5C7.46822 3.5 7.45026 3.5 7.43229 3.5C7.41431 3.5 7.39632 3.5 7.37831 3.5C7.3603 3.5 7.34227 3.5 7.32422 3.5C7.30617 3.5 7.2881 3.5 7.27002 3.5C7.25193 3.5 7.23383 3.5 7.21571 3.5C7.19759 3.5 7.17945 3.5 7.1613 3.5C7.14314 3.5 7.12496 3.5 7.10677 3.5C7.08858 3.5 7.07037 3.5 7.05214 3.5C7.03391 3.5 7.01567 3.5 6.9974 3.5C6.97914 3.5 6.96086 3.5 6.94255 3.5C6.92425 3.5 6.90594 3.5 6.8876 3.5C6.86926 3.5 6.85091 3.5 6.83254 3.5C6.81417 3.5 6.79578 3.5 6.77737 3.5C6.75896 3.5 6.74054 3.5 6.72209 3.5C6.70365 3.5 6.68519 3.5 6.66671 3.5C6.64823 3.5 6.62973 3.5 6.61122 3.5C6.5927 3.5 6.57417 3.5 6.55562 3.5C6.53707 3.5 6.5185 3.5 6.49992 3.5C6.48133 3.5 6.46273 3.5 6.44411 3.5C6.42549 3.5 6.40685 3.5 6.38819 3.5C6.36953 3.5 6.35086 3.5 6.33217 3.5C6.31347 3.5 6.29476 3.5 6.27604 3.5C6.25731 3.5 6.23856 3.5 6.2198 3.5C6.20104 3.5 6.18226 3.5 6.16346 3.5C6.14466 3.5 6.12584 3.5 6.10701 3.5C6.08818 3.5 6.06933 3.5 6.05046 3.5C6.03159 3.5 6.0127 3.5 5.9938 3.5C5.97489 3.5 5.95597 3.5 5.93703 3.5C5.91809 3.5 5.89914 3.5 5.88016 3.5C5.86119 3.5 5.8422 3.5 5.82319 3.5C5.80418 3.5 5.78515 3.5 5.76611 3.5C5.74706 3.5 5.728 3.5 5.70892 3.5C5.68984 3.5 5.67075 3.5 5.65163 3.5C5.63252 3.5 5.61339 3.5 5.59424 3.5C5.57509 3.5 5.55592 3.5 5.53674 3.5C5.51755 3.5 5.49835 3.5 5.47913 3.5C5.45991 3.5 5.44068 3.5 5.42142 3.5C5.40217 3.5 5.3829 3.5 5.36361 3.5C5.34432 3.5 5.32502 3.5 5.30569 3.5C5.28637 3.5 5.26703 3.5 5.24767 3.5C5.22831 3.5 5.20894 3.5 5.18955 3.5C5.17016 3.5 5.15075 3.5 5.13132 3.5C5.11189 3.5 5.09245 3.5 5.07299 3.5C5.05352 3.5 5.03405 3.5 5.01455 3.5C4.99505 3.5 4.97554 3.5 4.95601 3.5C4.93648 3.5 4.91693 3.5 4.89737 3.5C4.8778 3.5 4.85822 3.5 4.83862 3.5C4.81902 3.5 4.79941 3.5 4.77977 3.5C4.76014 3.5 4.74049 3.5 4.72082 3.5C4.70115 3.5 4.68147 3.5 4.66177 3.5C4.64207 3.5 4.62235 3.5 4.60261 3.5C4.58287 3.5 4.56312 3.5 4.54335 3.5C4.52358 3.5 4.50379 3.5 4.48399 3.5C4.46418 3.5 4.44436 3.5 4.42452 3.5C4.40468 3.5 4.38483 3.5 4.36496 3.5C4.34508 3.5 4.32519 3.5 4.30529 3.5C4.28538 3.5 4.26546 3.5 4.24552 3.5C4.22558 3.5 4.20562 3.5 4.18564 3.5C4.16567 3.5 4.14568 3.5 4.12567 3.5C4.10566 3.5 4.08564 3.5 4.06559 3.5C4.04555 3.5 4.02549 3.5 4.00542 3.5C3.98534 3.5 3.96525 3.5 3.94514 3.5C3.92503 3.5 3.9049 3.5 3.88476 3.5C3.86461 3.5 3.84445 3.5 3.82428 3.5C3.8041 3.5 3.78391 3.5 3.76369 3.5C3.74348 3.5 3.72326 3.5 3.70301 3.5C3.68277 3.5 3.66251 3.5 3.64223 3.5C3.62195 3.5 3.60166 3.5 3.58134 3.5C3.56103 3.5 3.5407 3.5 3.52036 3.5C3.50001 3.5 3.47965 3.5 3.45927 3.5C3.4389 3.5 3.4185 3.5 3.39809 3.5C3.37768 3.5 3.35725 3.5 3.3368 3.5C3.31636 3.5 3.2959 3.5 3.27542 3.5C3.25494 3.5 3.23445 3.5 3.21393 3.5C3.19342 3.5 3.17289 3.5 3.15235 3.5C3.1318 3.5 3.11124 3.5 3.09066 3.5C3.07009 3.5 3.04949 3.5 3.02888 3.5C3.00827 3.5 2.98764 3.5 2.967 3.5C2.94635 3.5 2.92569 3.5 2.90501 3.5C2.88434 3.5 2.86364 3.5 2.84293 3.5C2.82222 3.5 2.8015 3.5 2.78075 3.5C2.76001 3.5 2.73925 3.5 2.71847 3.5C2.6977 3.5 2.6769 3.5 2.65609 3.5C2.63529 3.5 2.61446 3.5 2.59362 3.5C2.57278 3.5 2.55192 3.5 2.53104 3.5C2.51017 3.5 2.48928 3.5 2.46837 3.5C2.44746 3.5 2.42654 3.5 2.4056 3.5C2.38466 3.5 2.3637 3.5 2.34273 3.5C2.32175 3.5 2.30076 3.5 2.27976 3.5C2.25875 3.5 2.23773 3.5 2.21669 3.5C2.19565 3.5 2.1746 3.5 2.15353 3.5C2.13246 3.5 2.11137 3.5 2.09027 3.5C2.06916 3.5 2.04804 3.5 2.02691 3.5C2.00577 3.5 1.98462 3.5 1.96345 3.5C1.94228 3.5 1.9211 3.5 1.8999 3.5C1.8787 3.5 1.85748 3.5 1.83625 3.5C1.81501 3.5 1.79376 3.5 1.7725 3.5C1.75123 3.5 1.72995 3.5 1.70865 3.5C1.68736 3.5 1.66604 3.5 1.64471 3.5C1.62338 3.5 1.60204 3.5 1.58067 3.5C1.55931 3.5 1.53793 3.5 1.51654 3.5C1.49514 3.5 1.47373 3.5 1.45231 3.5C1.43088 3.5 1.40944 3.5 1.38798 3.5C1.36652 3.5 1.34505 3.5 1.32356 3.5C1.30207 3.5 1.28056 3.5 1.25904 3.5C1.23751 3.5 1.21598 3.5 1.19442 3.5C1.17287 3.5 1.1513 3.5 1.12971 3.5C1.10812 3.5 1.08652 3.5 1.0649 3.5C1.04328 3.5 1.02165 3.5 1 3.5L1 4.5Z" fill="#666666"/>
</svg>