<svg width="164" height="164" viewBox="0 0 164 164" fill="none" xmlns="http://www.w3.org/2000/svg">
<path d="M136.665 82V123.5C136.665 132.928 136.665 137.642 133.736 140.571C130.807 143.5 126.093 143.5 116.665 143.5H44.4154C37.7894 143.5 34.4764 143.5 32.0514 141.992C30.7488 141.182 29.65 140.083 28.84 138.781C27.332 136.356 27.332 133.043 27.332 126.417V126.417C27.332 119.791 27.332 116.478 28.84 114.053C29.65 112.75 30.7488 111.651 32.0514 110.841C34.4764 109.333 37.7894 109.333 44.4154 109.333H116.665C126.093 109.333 130.807 109.333 133.736 106.404C136.665 103.475 136.665 98.7614 136.665 89.3333V40.5C136.665 31.0719 136.665 26.3579 133.736 23.4289C130.807 20.5 126.093 20.5 116.665 20.5H47.332C37.9039 20.5 33.1899 20.5 30.261 23.4289C27.332 26.3579 27.332 31.0719 27.332 40.5V126.417" stroke="#333333" stroke-width="4"/>
<path d="M61.5 68.3332L74.4596 81.2927C74.8501 81.6833 75.4832 81.6833 75.8738 81.2927L102.5 54.6665" stroke="#333333" stroke-width="4" stroke-linecap="round"/>
</svg>
