<svg width="165" height="164" viewBox="0 0 165 164" fill="none" xmlns="http://www.w3.org/2000/svg">
<path d="M40.1427 75.4493C39.2371 70.5332 43.0116 66 48.0104 66H104.99C109.988 66 113.763 70.5333 112.857 75.4493L102.541 131.449C101.842 135.245 98.5332 138 94.6739 138H58.3261C54.4668 138 51.1577 135.245 50.4585 131.449L40.1427 75.4493Z" stroke="#333333" stroke-width="4"/>
<path fill-rule="evenodd" clip-rule="evenodd" d="M108.602 109.588C109.859 109.858 111.164 110 112.502 110C122.719 110 131.002 101.717 131.002 91.5C131.002 82.1155 124.014 74.3631 114.958 73.1616C115.03 74.0239 114.989 74.9126 114.824 75.8116L114.577 77.1474C121.602 78.1544 127.002 84.1966 127.002 91.5C127.002 99.5081 120.51 106 112.502 106C111.411 106 110.349 105.88 109.327 105.651L108.602 109.588Z" fill="#333333"/>
<path d="M65 67L65 77" stroke="#333333" stroke-width="4" stroke-linecap="round" stroke-linejoin="round"/>
<path d="M59.7489 80.2088L59.7489 80.2088C58.6832 80.6978 58 81.7629 58 82.9355V92C58 93.6569 59.3431 95 61 95H69C70.6569 95 72 93.6569 72 92V82.9355C72 81.7629 71.3168 80.6978 70.2511 80.2088L69.4224 82.0149L70.2511 80.2088L66.2511 78.3735C65.4568 78.0091 64.5432 78.0091 63.7489 78.3735L59.7489 80.2088Z" stroke="#333333" stroke-width="4"/>
<path d="M70.1597 25C66.65 27.625 62.1256 31.825 67.43 39.875C74.0606 49.9375 76.01 52.5625 71.72 60" stroke="#333333" stroke-width="4" stroke-linecap="round" stroke-linejoin="round"/>
<path d="M84.1597 25C80.65 27.625 76.1256 31.825 81.43 39.875C88.0606 49.9375 90.01 52.5625 85.72 60" stroke="#333333" stroke-width="4" stroke-linecap="round" stroke-linejoin="round"/>
<path opacity="0.2" d="M13.6099 45.423L2.94838 42.6616L5.7098 32" stroke="#F8DA0D" stroke-width="4" stroke-linecap="round" stroke-linejoin="round" stroke-dasharray="26 26"/>
</svg>
