<svg width="164" height="164" viewBox="0 0 164 164" fill="none" xmlns="http://www.w3.org/2000/svg">
<path d="M81.9987 136.667L28.0117 69.1831C27.6792 68.7675 27.513 68.5596 27.4683 68.3092C27.4236 68.0587 27.5078 67.8062 27.6761 67.3013L40.087 30.0686C40.527 28.7485 40.747 28.0885 41.2708 27.711C41.7946 27.3335 42.4903 27.3335 43.8817 27.3335H120.116C121.507 27.3335 122.203 27.3335 122.727 27.711C123.25 28.0885 123.47 28.7485 123.91 30.0686L136.321 67.3013C136.49 67.8062 136.574 68.0587 136.529 68.3092C136.484 68.5596 136.318 68.7675 135.986 69.1831L81.9987 136.667ZM81.9987 136.667L105.915 61.5002M81.9987 136.667L58.082 61.5002M133.249 68.3335L105.915 61.5002M105.915 61.5002L92.2487 27.3335M105.915 61.5002H58.082M71.7487 27.3335L58.082 61.5002M58.082 61.5002L30.7487 68.3335" stroke="#333333" stroke-width="4" stroke-linecap="round"/>
</svg>
