<svg width="410" height="426" viewBox="0 0 410 426" fill="none" xmlns="http://www.w3.org/2000/svg">
<ellipse cx="5.6439" cy="5.62872" rx="5.6439" ry="5.62872" transform="matrix(0.775794 0.630987 -0.641712 0.766946 351.082 0)" fill="#333333"/>
<ellipse cx="5.6439" cy="5.62872" rx="5.6439" ry="5.62872" transform="matrix(0.775794 0.630987 -0.641712 0.766946 337.537 16.1885)" fill="#333333"/>
<ellipse cx="5.6439" cy="5.62872" rx="5.6439" ry="5.62872" transform="matrix(0.775794 0.630987 -0.641712 0.766946 323.992 32.377)" fill="#333333"/>
<ellipse cx="5.6439" cy="5.62872" rx="5.6439" ry="5.62872" transform="matrix(0.775794 0.630987 -0.641712 0.766946 310.447 48.5659)" fill="#333333"/>
<ellipse cx="5.6439" cy="5.62872" rx="5.6439" ry="5.62872" transform="matrix(0.775794 0.630987 -0.641712 0.766946 296.902 64.7539)" fill="#333333"/>
<ellipse cx="5.6439" cy="5.62872" rx="5.6439" ry="5.62872" transform="matrix(0.775794 0.630987 -0.641712 0.766946 283.357 80.9429)" fill="#333333"/>
<ellipse cx="5.6439" cy="5.62872" rx="5.6439" ry="5.62872" transform="matrix(0.775794 0.630987 -0.641712 0.766946 269.811 97.1313)" fill="#333333"/>
<ellipse cx="5.6439" cy="5.62872" rx="5.6439" ry="5.62872" transform="matrix(0.775794 0.630987 -0.641712 0.766946 256.266 113.32)" fill="#333333"/>
<ellipse cx="5.6439" cy="5.62872" rx="5.6439" ry="5.62872" transform="matrix(0.775794 0.630987 -0.641712 0.766946 242.721 129.508)" fill="#333333"/>
<ellipse cx="5.6439" cy="5.62872" rx="5.6439" ry="5.62872" transform="matrix(0.775794 0.630987 -0.641712 0.766946 229.178 145.697)" fill="#333333"/>
<ellipse cx="5.6439" cy="5.62872" rx="5.6439" ry="5.62872" transform="matrix(0.775794 0.630987 -0.641712 0.766946 367.502 13.355)" fill="#333333"/>
<ellipse cx="5.6439" cy="5.62872" rx="5.6439" ry="5.62872" transform="matrix(0.775794 0.630987 -0.641712 0.766946 353.955 29.543)" fill="#333333"/>
<ellipse cx="5.6439" cy="5.62872" rx="5.6439" ry="5.62872" transform="matrix(0.775794 0.630987 -0.641712 0.766946 340.412 45.7314)" fill="#333333"/>
<ellipse cx="5.6439" cy="5.62872" rx="5.6439" ry="5.62872" transform="matrix(0.775794 0.630987 -0.641712 0.766946 326.865 61.9204)" fill="#333333"/>
<ellipse cx="5.6439" cy="5.62872" rx="5.6439" ry="5.62872" transform="matrix(0.775794 0.630987 -0.641712 0.766946 313.322 78.1089)" fill="#333333"/>
<ellipse cx="5.6439" cy="5.62872" rx="5.6439" ry="5.62872" transform="matrix(0.775794 0.630987 -0.641712 0.766946 299.775 94.2974)" fill="#333333"/>
<ellipse cx="5.6439" cy="5.62872" rx="5.6439" ry="5.62872" transform="matrix(0.775794 0.630987 -0.641712 0.766946 286.232 110.485)" fill="#333333"/>
<ellipse cx="5.6439" cy="5.62872" rx="5.6439" ry="5.62872" transform="matrix(0.775794 0.630987 -0.641712 0.766946 272.686 126.674)" fill="#333333"/>
<ellipse cx="5.6439" cy="5.62872" rx="5.6439" ry="5.62872" transform="matrix(0.775794 0.630987 -0.641712 0.766946 259.141 142.863)" fill="#333333"/>
<ellipse cx="5.6439" cy="5.62872" rx="5.6439" ry="5.62872" transform="matrix(0.775794 0.630987 -0.641712 0.766946 245.596 159.051)" fill="#333333"/>
<ellipse cx="5.6439" cy="5.62872" rx="5.6439" ry="5.62872" transform="matrix(0.775794 0.630987 -0.641712 0.766946 383.92 26.7095)" fill="#333333"/>
<ellipse cx="5.6439" cy="5.62872" rx="5.6439" ry="5.62872" transform="matrix(0.775794 0.630987 -0.641712 0.766946 370.377 42.8979)" fill="#333333"/>
<ellipse cx="5.6439" cy="5.62872" rx="5.6439" ry="5.62872" transform="matrix(0.775794 0.630987 -0.641712 0.766946 356.83 59.0864)" fill="#333333"/>
<ellipse cx="5.6439" cy="5.62872" rx="5.6439" ry="5.62872" transform="matrix(0.775794 0.630987 -0.641712 0.766946 343.287 75.2749)" fill="#333333"/>
<ellipse cx="5.6439" cy="5.62872" rx="5.6439" ry="5.62872" transform="matrix(0.775794 0.630987 -0.641712 0.766946 329.74 91.4634)" fill="#333333"/>
<ellipse cx="5.6439" cy="5.62872" rx="5.6439" ry="5.62872" transform="matrix(0.775794 0.630987 -0.641712 0.766946 316.195 107.652)" fill="#333333"/>
<ellipse cx="5.6439" cy="5.62872" rx="5.6439" ry="5.62872" transform="matrix(0.775794 0.630987 -0.641712 0.766946 302.65 123.84)" fill="#333333"/>
<ellipse cx="5.6439" cy="5.62872" rx="5.6439" ry="5.62872" transform="matrix(0.775794 0.630987 -0.641712 0.766946 289.105 140.029)" fill="#333333"/>
<ellipse cx="5.6439" cy="5.62872" rx="5.6439" ry="5.62872" transform="matrix(0.775794 0.630987 -0.641712 0.766946 275.559 156.217)" fill="#333333"/>
<ellipse cx="5.6439" cy="5.62872" rx="5.6439" ry="5.62872" transform="matrix(0.775794 0.630987 -0.641712 0.766946 262.016 172.406)" fill="#333333"/>
<ellipse cx="5.6439" cy="5.62872" rx="5.6439" ry="5.62872" transform="matrix(0.775794 0.630987 -0.641712 0.766946 400.34 40.064)" fill="#333333"/>
<ellipse cx="5.6439" cy="5.62872" rx="5.6439" ry="5.62872" transform="matrix(0.775794 0.630987 -0.641712 0.766946 386.795 56.2524)" fill="#333333"/>
<ellipse cx="5.6439" cy="5.62872" rx="5.6439" ry="5.62872" transform="matrix(0.775794 0.630987 -0.641712 0.766946 373.25 72.4409)" fill="#333333"/>
<ellipse cx="5.6439" cy="5.62872" rx="5.6439" ry="5.62872" transform="matrix(0.775794 0.630987 -0.641712 0.766946 359.703 88.6294)" fill="#333333"/>
<ellipse cx="5.6439" cy="5.62872" rx="5.6439" ry="5.62872" transform="matrix(0.775794 0.630987 -0.641712 0.766946 346.16 104.818)" fill="#333333"/>
<ellipse cx="5.6439" cy="5.62872" rx="5.6439" ry="5.62872" transform="matrix(0.775794 0.630987 -0.641712 0.766946 332.613 121.006)" fill="#333333"/>
<ellipse cx="5.6439" cy="5.62872" rx="5.6439" ry="5.62872" transform="matrix(0.775794 0.630987 -0.641712 0.766946 319.07 137.195)" fill="#333333"/>
<ellipse cx="5.6439" cy="5.62872" rx="5.6439" ry="5.62872" transform="matrix(0.775794 0.630987 -0.641712 0.766946 305.523 153.384)" fill="#333333"/>
<ellipse cx="5.6439" cy="5.62872" rx="5.6439" ry="5.62872" transform="matrix(0.775794 0.630987 -0.641712 0.766946 291.98 169.572)" fill="#333333"/>
<ellipse cx="5.6439" cy="5.62872" rx="5.6439" ry="5.62872" transform="matrix(0.775794 0.630987 -0.641712 0.766946 278.436 185.76)" fill="#333333"/>
<ellipse cx="5.6439" cy="5.62872" rx="5.6439" ry="5.62872" transform="matrix(0.775794 0.630987 -0.641712 0.766946 389.668 85.7954)" fill="#333333"/>
<ellipse cx="5.6439" cy="5.62872" rx="5.6439" ry="5.62872" transform="matrix(0.775794 0.630987 -0.641712 0.766946 376.125 101.984)" fill="#333333"/>
<ellipse cx="5.6439" cy="5.62872" rx="5.6439" ry="5.62872" transform="matrix(0.775794 0.630987 -0.641712 0.766946 362.58 118.172)" fill="#333333"/>
<ellipse cx="5.6439" cy="5.62872" rx="5.6439" ry="5.62872" transform="matrix(0.775794 0.630987 -0.641712 0.766946 349.033 134.361)" fill="#333333"/>
<ellipse cx="5.6439" cy="5.62872" rx="5.6439" ry="5.62872" transform="matrix(0.775794 0.630987 -0.641712 0.766946 335.488 150.55)" fill="#333333"/>
<ellipse cx="5.6439" cy="5.62872" rx="5.6439" ry="5.62872" transform="matrix(0.775794 0.630987 -0.641712 0.766946 321.943 166.738)" fill="#333333"/>
<ellipse cx="5.6439" cy="5.62872" rx="5.6439" ry="5.62872" transform="matrix(0.775794 0.630987 -0.641712 0.766946 308.398 182.926)" fill="#333333"/>
<ellipse cx="5.6439" cy="5.62872" rx="5.6439" ry="5.62872" transform="matrix(0.775794 0.630987 -0.641712 0.766946 294.854 199.115)" fill="#333333"/>
<ellipse cx="5.6439" cy="5.62872" rx="5.6439" ry="5.62872" transform="matrix(0.775794 0.630987 -0.641712 0.766946 392.545 115.339)" fill="#333333"/>
<ellipse cx="5.6439" cy="5.62872" rx="5.6439" ry="5.62872" transform="matrix(0.775794 0.630987 -0.641712 0.766946 378.998 131.527)" fill="#333333"/>
<ellipse cx="5.6439" cy="5.62872" rx="5.6439" ry="5.62872" transform="matrix(0.775794 0.630987 -0.641712 0.766946 365.455 147.715)" fill="#333333"/>
<ellipse cx="5.6439" cy="5.62872" rx="5.6439" ry="5.62872" transform="matrix(0.775794 0.630987 -0.641712 0.766946 351.908 163.904)" fill="#333333"/>
<ellipse cx="5.6439" cy="5.62872" rx="5.6439" ry="5.62872" transform="matrix(0.775794 0.630987 -0.641712 0.766946 338.363 180.093)" fill="#333333"/>
<ellipse cx="5.6439" cy="5.62872" rx="5.6439" ry="5.62872" transform="matrix(0.775794 0.630987 -0.641712 0.766946 324.818 196.281)" fill="#333333"/>
<ellipse cx="5.6439" cy="5.62872" rx="5.6439" ry="5.62872" transform="matrix(0.775794 0.630987 -0.641712 0.766946 311.273 212.469)" fill="#333333"/>
<ellipse cx="5.6439" cy="5.62872" rx="5.6439" ry="5.62872" transform="matrix(0.775794 0.630987 -0.641712 0.766946 395.418 144.882)" fill="#333333"/>
<ellipse cx="5.6439" cy="5.62872" rx="5.6439" ry="5.62872" transform="matrix(0.775794 0.630987 -0.641712 0.766946 381.873 161.07)" fill="#333333"/>
<ellipse cx="5.6439" cy="5.62872" rx="5.6439" ry="5.62872" transform="matrix(0.775794 0.630987 -0.641712 0.766946 368.328 177.259)" fill="#333333"/>
<ellipse cx="5.6439" cy="5.62872" rx="5.6439" ry="5.62872" transform="matrix(0.775794 0.630987 -0.641712 0.766946 354.781 193.447)" fill="#333333"/>
<ellipse cx="5.6439" cy="5.62872" rx="5.6439" ry="5.62872" transform="matrix(0.775794 0.630987 -0.641712 0.766946 341.236 209.636)" fill="#333333"/>
<ellipse cx="5.6439" cy="5.62872" rx="5.6439" ry="5.62872" transform="matrix(0.775794 0.630987 -0.641712 0.766946 327.691 225.824)" fill="#333333"/>
<ellipse cx="5.6439" cy="5.62872" rx="5.6439" ry="5.62872" transform="matrix(0.775794 0.630987 -0.641712 0.766946 398.293 174.425)" fill="#333333"/>
<ellipse cx="5.6439" cy="5.62872" rx="5.6439" ry="5.62872" transform="matrix(0.775794 0.630987 -0.641712 0.766946 384.746 190.613)" fill="#333333"/>
<ellipse cx="5.6439" cy="5.62872" rx="5.6439" ry="5.62872" transform="matrix(0.775794 0.630987 -0.641712 0.766946 371.203 206.802)" fill="#333333"/>
<ellipse cx="5.6439" cy="5.62872" rx="5.6439" ry="5.62872" transform="matrix(0.775794 0.630987 -0.641712 0.766946 357.656 222.99)" fill="#333333"/>
<ellipse cx="5.6439" cy="5.62872" rx="5.6439" ry="5.62872" transform="matrix(0.775794 0.630987 -0.641712 0.766946 344.111 239.179)" fill="#333333"/>
<ellipse cx="5.6439" cy="5.62872" rx="5.6439" ry="5.62872" transform="matrix(0.775794 0.630987 -0.641712 0.766946 401.166 203.968)" fill="#333333"/>
<ellipse cx="5.6439" cy="5.62872" rx="5.6439" ry="5.62872" transform="matrix(0.775794 0.630987 -0.641712 0.766946 387.621 220.156)" fill="#333333"/>
<ellipse cx="5.6439" cy="5.62872" rx="5.6439" ry="5.62872" transform="matrix(0.775794 0.630987 -0.641712 0.766946 374.076 236.345)" fill="#333333"/>
<ellipse cx="5.6439" cy="5.62872" rx="5.6439" ry="5.62872" transform="matrix(0.775794 0.630987 -0.641712 0.766946 360.531 252.533)" fill="#333333"/>
<ellipse cx="5.6439" cy="5.62872" rx="5.6439" ry="5.62872" transform="matrix(0.775794 0.630987 -0.641712 0.766946 390.496 249.699)" fill="#333333"/>
<ellipse cx="5.6439" cy="5.62872" rx="5.6439" ry="5.62872" transform="matrix(0.775794 0.630987 -0.641712 0.766946 376.951 265.888)" fill="#333333"/>
<ellipse cx="5.6439" cy="5.62872" rx="5.6439" ry="5.62872" transform="matrix(0.775794 0.630987 -0.641712 0.766946 393.369 279.243)" fill="#333333"/>
<ellipse cx="44.3647" cy="43.7911" rx="44.3647" ry="43.7911" transform="matrix(-1 0 0 1 89.707 272.555)" fill="#333333"/>
<ellipse cx="33.3623" cy="32.9309" rx="33.3623" ry="32.9309" transform="matrix(-1 0 0 1 142.945 360.137)" fill="#333333"/>
<ellipse cx="16.3262" cy="16.1151" rx="16.3262" ry="16.1151" transform="matrix(-1 0 0 1 175.598 327.907)" fill="#333333"/>
</svg>
