<svg width="164" height="164" viewBox="0 0 164 164" fill="none" xmlns="http://www.w3.org/2000/svg">
<path d="M118.667 27V27C128.792 27 137 35.2081 137 45.3333L137 62.7723C137 63.1419 137 63.3266 136.907 63.4569C136.875 63.5021 136.835 63.5416 136.79 63.5738C136.66 63.6666 136.475 63.6666 136.106 63.6666L100.333 63.6666M118.667 27V27C108.541 27 100.333 35.2081 100.333 45.3333L100.333 63.6666M118.667 27L67 27C48.1438 27 38.7157 27 32.8579 32.8579C27 38.7157 27 48.1438 27 67L27 137L45.3333 130.889L63.6667 137L82 130.889L100.333 137L100.333 63.6666" stroke="#333333" stroke-width="4"/>
<path d="M47.832 47.8335L75.1654 47.8335" stroke="#333333" stroke-width="4" stroke-linecap="round"/>
<path d="M54.668 75.1665H47.8346" stroke="#333333" stroke-width="4" stroke-linecap="round"/>
<path d="M47.832 102.5L68.332 102.5" stroke="#333333" stroke-width="4" stroke-linecap="round"/>
</svg>
