<svg width="164" height="164" viewBox="0 0 164 164" fill="none" xmlns="http://www.w3.org/2000/svg">
<ellipse cx="82.0013" cy="54.6668" rx="27.3333" ry="27.3333" stroke="#333333" stroke-width="4" stroke-linecap="round"/>
<path d="M126.405 103.126C124.972 102.692 123.465 102.5 121.956 102.5C118.064 102.5 115.406 104.285 112.749 106.117C110.138 104.311 107.434 102.5 103.588 102.5C102.11 102.5 100.568 102.645 99.1664 103.08C90.2431 105.715 87.0623 114.455 89.7648 122.094C91.2955 125.997 93.7612 129.538 96.966 132.449C101.793 136.651 107.05 140.316 112.749 143.5C118.437 140.4 123.789 136.639 128.56 132.471C131.786 129.56 134.249 125.997 135.756 122.094C138.413 114.455 135.232 105.715 126.405 103.126Z" stroke="#333333" stroke-width="4"/>
<path fill-rule="evenodd" clip-rule="evenodd" d="M76.1034 107.566C75.7547 108.897 75.5037 110.262 75.3506 111.646C72.9608 111.872 70.5866 112.22 68.2451 112.691C59.2344 114.502 51.0655 118.051 44.5446 122.942C38.025 127.832 33.4121 133.865 31.0793 140.394C30.7076 141.435 29.5632 141.977 28.523 141.605C27.4828 141.233 26.9408 140.089 27.3124 139.049C29.9469 131.675 35.0935 125.03 42.1446 119.742C49.1946 114.454 57.9296 110.684 67.457 108.769C70.3035 108.197 73.1945 107.796 76.1034 107.566Z" fill="#333333"/>
</svg>
