<svg width="14" height="14" viewBox="0 0 14 14" fill="none" xmlns="http://www.w3.org/2000/svg">
    <path d="M5.60631 2.97077C6.19626 1.50002 6.49124 0.764648 6.99848 0.764648C7.50573 0.764648 7.8007 1.50002 8.39066 2.97077L8.41813 3.03926C8.75142 3.87016 8.91807 4.28561 9.25771 4.53813C9.59735 4.79064 10.0432 4.83057 10.9349 4.91043L11.0961 4.92487C12.5554 5.05556 13.2851 5.12091 13.4413 5.58515C13.5974 6.04939 13.0555 6.5424 11.9717 7.52841L11.61 7.85749C11.0614 8.35663 10.7871 8.6062 10.6592 8.9333C10.6354 8.99431 10.6155 9.05682 10.5998 9.12043C10.5158 9.46143 10.5961 9.82348 10.7568 10.5476L10.8068 10.773C11.1021 12.1037 11.2497 12.7691 10.9919 13.0561C10.8956 13.1633 10.7704 13.2406 10.6314 13.2785C10.2592 13.38 9.73085 12.9495 8.67414 12.0884C7.98026 11.523 7.63332 11.2403 7.23499 11.1767C7.07831 11.1517 6.91865 11.1517 6.76197 11.1767C6.36365 11.2403 6.01671 11.523 5.32283 12.0884C4.26612 12.9495 3.73776 13.38 3.36561 13.2785C3.22654 13.2406 3.10136 13.1633 3.00504 13.0561C2.74728 12.7691 2.89491 12.1037 3.19017 10.773L3.24017 10.5476C3.40083 9.82348 3.48116 9.46143 3.39712 9.12043C3.38144 9.05682 3.36161 8.99431 3.33776 8.9333C3.20991 8.6062 2.93559 8.35663 2.38696 7.85749L2.02525 7.52841C0.94147 6.5424 0.399579 6.04939 0.555712 5.58515C0.711846 5.12091 1.44153 5.05556 2.90089 4.92487L3.06209 4.91043C3.95378 4.83057 4.39962 4.79064 4.73926 4.53813C5.0789 4.28561 5.24554 3.87016 5.57884 3.03926L5.60631 2.97077Z" fill="#F8DA0D"/>
</svg>
